<svg width="18" height="18" viewBox="0 0 18 18" fill="none" xmlns="http://www.w3.org/2000/svg">
<path d="M8.97459 6.73145C8.38075 6.73537 7.81235 6.97301 7.39243 7.39292C6.97252 7.81284 6.73488 8.38124 6.73096 8.97507C6.73096 10.2031 7.74657 11.2187 8.97459 11.2187C10.2018 11.2187 11.2182 10.2031 11.2182 8.97507C11.2182 7.74781 10.2018 6.73145 8.97459 6.73145Z" fill="white"/>
<path d="M8.97422 3.73926C3.26569 3.73926 1.55006 8.68795 1.53435 8.73806L1.45508 8.97439L1.53361 9.21072C1.55006 9.26083 3.26569 14.2095 8.97422 14.2095C14.6828 14.2095 16.3984 9.26083 16.4141 9.21072L16.4934 8.97439L16.4148 8.73806C16.3984 8.68795 14.6828 3.73926 8.97422 3.73926ZM8.97422 12.7138C4.97234 12.7138 3.42199 9.83744 3.04656 8.97439C3.42349 8.10835 4.97458 5.23501 8.97422 5.23501C12.9761 5.23501 14.5265 8.11134 14.9019 8.97439C14.525 9.84043 12.9739 12.7138 8.97422 12.7138Z" fill="white"/>
</svg>
