<svg width="15" height="15" viewBox="0 0 15 15" fill="none" xmlns="http://www.w3.org/2000/svg">
<path d="M1.85938 4.20312V12.7031H12.8594V4.20312H10.3594V10.2031L7.35938 8.70312L4.35938 10.2031V4.20312H1.85938ZM1.85938 14.2031C1.44687 14.2031 1.09375 14.0562 0.8 13.7625C0.50625 13.4688 0.359375 13.1156 0.359375 12.7031V2.82812C0.359375 2.63368 0.395833 2.44618 0.46875 2.26562C0.541667 2.08507 0.651042 1.9184 0.796875 1.76562L1.92188 0.640625C2.07465 0.487847 2.2409 0.376736 2.42063 0.307292C2.60035 0.237847 2.78826 0.203125 2.98438 0.203125H11.7344C11.9305 0.203125 12.1184 0.237847 12.2981 0.307292C12.4778 0.376736 12.6441 0.487847 12.7969 0.640625L13.9219 1.76562C14.0677 1.9184 14.1771 2.08507 14.25 2.26562C14.3229 2.44618 14.3594 2.63368 14.3594 2.82812V12.7031C14.3594 13.1156 14.2125 13.4688 13.9187 13.7625C13.625 14.0562 13.2719 14.2031 12.8594 14.2031H1.85938ZM1.98438 2.70312H12.7344L11.7344 1.70312H2.98438L1.98438 2.70312ZM5.85938 4.20312V7.76562L7.35938 7.01562L8.85938 7.76562V4.20312H5.85938Z" fill="#009D6D"/>
</svg>
